<svg xmlns:xlink="http://www.w3.org/1999/xlink" xmlns="http://www.w3.org/2000/svg" viewBox="0 0 49.7 49.77" width="300"  height="80" ><g id="Camada_2" data-name="Camada 2"><g id="Camada_1-2" data-name="Camada 1"><polygon points="44.74 13.82 44.74 4.96 35.87 4.96 35.87 0 49.7 0 49.7 13.82 44.74 13.82"/><polygon points="0 13.82 0 0 13.82 0 13.82 4.96 4.96 4.96 4.96 13.82 0 13.82"/><polygon points="35.87 49.77 35.87 44.81 44.74 44.81 44.74 35.95 49.7 35.95 49.7 49.77 35.87 49.77"/><polygon points="0 49.77 0 35.95 4.96 35.95 4.96 44.81 13.82 44.81 13.82 49.77 0 49.77"/><polygon points="22.07 37.07 22.07 20.25 14.23 20.25 12.84 15.16 36.86 15.16 35.47 20.25 27.63 20.25 27.63 37.07 22.07 37.07"/></g></g></svg>